<?xml version="1.0" encoding="UTF-8"?>
<svg data-bbox="-0.032 39.47 909.412 1866.371" viewBox="0 0 909.38 1905.82" xmlns="http://www.w3.org/2000/svg" data-type="ugc">
    <g>
        <defs>
            <linearGradient gradientUnits="userSpaceOnUse" gradientTransform="rotate(-2.5 1498.543 5478.671)" y2="48.47" x2="931.61" y1="263.37" x1="833.48" id="721c195a-c3c8-4200-b102-dc4b0d06e912">
                <stop stop-color="#998223" offset="0"/>
                <stop stop-color="#937e26" offset=".01"/>
                <stop stop-color="#796c34" offset=".09"/>
                <stop stop-color="#655e3f" offset=".17"/>
                <stop stop-color="#575446" offset=".27"/>
                <stop stop-color="#4f4e4b" offset=".39"/>
                <stop stop-color="#4c4c4c" offset=".58"/>
            </linearGradient>
            <linearGradient gradientUnits="userSpaceOnUse" gradientTransform="matrix(1.34 -.19 .14 .99 -1220.92 338.5)" y2="10.81" x2="1299.81" y1="113.4" x1="1241.23" id="139bc8ac-8179-41b9-a6f3-4d7cdcbf6954">
                <stop stop-color="#998223" offset="0"/>
                <stop stop-color="#937e26" offset=".03"/>
                <stop stop-color="#796c34" offset=".16"/>
                <stop stop-color="#655e3f" offset=".3"/>
                <stop stop-color="#575446" offset=".46"/>
                <stop stop-color="#4f4e4b" offset=".66"/>
                <stop stop-color="#4c4c4c" offset="1"/>
            </linearGradient>
            <linearGradient gradientUnits="userSpaceOnUse" gradientTransform="rotate(-2.5 1498.543 5478.671)" y2="-8.48" x2="864.97" y1="150.36" x1="795" id="66789db8-7211-4c21-b63e-68a9c33bdf3e">
                <stop stop-color="#6b5845" offset="0"/>
                <stop stop-color="#655646" offset=".07"/>
                <stop stop-color="#57504a" offset=".28"/>
                <stop stop-color="#4f4d4b" offset=".55"/>
                <stop stop-color="#4c4c4c" offset="1"/>
            </linearGradient>
            <linearGradient gradientUnits="userSpaceOnUse" gradientTransform="rotate(-2.5 1498.543 5478.671)" y2="92.4" x2="898.59" y1="278.86" x1="904.68" id="e15771cb-583e-49a4-b01b-bc6a7dda38fd">
                <stop stop-color="#998223" offset="0"/>
                <stop stop-color="#8d7a29" offset=".14"/>
                <stop stop-color="#5e5942" offset=".71"/>
                <stop stop-color="#4c4c4c" offset="1"/>
            </linearGradient>
        </defs>
        <g>
            <path d="M172.58 651.52a41.82 41.82 0 00-24-5c-10.37.93-17.82 5.88-26.89 10.21-9.86 4.71-20.84 4.23-31.4 4.78-4.52.24-9.41.84-12.93 3.86-3.12 2.69-4.57 6.71-3.18 10.2 1.59 4 7.58 3.47 9.53.67a6 6 0 003.63.26l4.35-1a5 5 0 003.83-5.16c3.27-.11 6.54-.24 9.82-.55a61 61 0 0022.85-6.26c6.6-3.42 12.46-7.29 20.14-8a32.13 32.13 0 0119 4c5.37 3.03 10.58-5 5.25-8.01z" fill="#ffd8bd"/>
            <path fill="none" stroke="#c3d4db" stroke-miterlimit="10" stroke-width="3" d="M482.204 211.399c1.943 12.43 2.004 22.743.138 23.034-1.866.292-4.953-9.548-6.896-21.979-1.942-12.43-2.003-22.743-.137-23.034 1.866-.292 4.953 9.548 6.895 21.979z"/>
            <path d="M887.87 1418.46l-226.23 12c-11.83.63-21.51-9.16-21.51-21.75v-285.26c0-12.59 9.68-22.69 21.51-22.44l226.23 4.8a22.13 22.13 0 0121.51 22v268a23 23 0 01-21.51 22.65z" fill="#3d3d3d"/>
            <path d="M864.41 1388.44l-182.47 8.34a5.05 5.05 0 01-5.17-5.22v-103.73a5.47 5.47 0 015.17-5.55l182.47-3.61a5.1 5.1 0 015.17 5.12V1383a5.51 5.51 0 01-5.17 5.44z" fill="#353535"/>
            <path d="M875 1310.07l-200.58 5.47a5.17 5.17 0 01-5.16-5.32v-39.14a5.43 5.43 0 015.16-5.54l200.58-3.2a5.1 5.1 0 015.17 5.12v37.27a5.38 5.38 0 01-5.17 5.34z" fill="#303030"/>
            <path d="M720.44 1173.56v46.69a5.34 5.34 0 01-5.17 5.43l-13.34.09a5.26 5.26 0 01-5.16-5.39v-46.94a5.27 5.27 0 015.16-5.39l13.34.08a5.34 5.34 0 015.17 5.43z" fill="#303030"/>
            <path d="M852.74 1174.21v45.27a5.27 5.27 0 01-5.17 5.28l-13.34.09a5.18 5.18 0 01-5.16-5.23v-45.53a5.19 5.19 0 015.16-5.23l13.34.08a5.26 5.26 0 015.17 5.27z" fill="#303030"/>
            <path d="M826.31 1043.9c-13.71-16.76-32-26.47-51.56-27.28s-37.84 7.56-51.55 23.64c-13.46 15.88-20.88 37.38-20.88 60.43l13.51.29c0-40.07 26.43-71.66 58.92-70.42s58.93 34 58.93 73l13.5.29c0-22.34-7.41-43.59-20.87-59.95z" fill="#303030"/>
            <path fill="#303030" d="M702.33 1172.96v-72.27l13.5.29v72.05l-13.5-.07z"/>
            <path fill="#303030" d="M833.68 1173.17v-70.11l13.5.29v69.89l-13.5-.07z"/>
            <path d="M788.35 1036.41L758 1035.3a5.53 5.53 0 01-5.16-5.55v-13.84a5 5 0 015.16-5.14l30.35 1.29a5.52 5.52 0 015.16 5.52v13.71a5 5 0 01-5.16 5.12z" fill="#303030"/>
            <path d="M810.39 1192.2c0 20.14-16 36.6-35.64 36.75s-35.63-16.32-35.63-36.8 16-36.94 35.63-36.76 35.64 16.66 35.64 36.81z" fill="#f0feff"/>
            <path d="M752.84 1196.93s6-24.24 10.3-24.12c3.26 2.34 1.79 8 3.61 9.32s2.82-7.57 5.67-7c2.63 1.18 4.18 2.44 5.81-1.38s7.79 12.18 9.74 23.31z" fill="#fc5672"/>
            <path d="M761.34 1209.05s6.58-24.21 11.29-24.1c3.59 2.34 2 8 4 9.3s3.09-7.57 6.22-7c2.88 1.17 4.59 2.43 6.37-1.39s8.57 12.13 10.7 23.23z" fill="#ff7b97"/>
            <path d="M768.22 569.47c12.87 27.36 10.59 65 11.1 94.37.91 52.15-1.59 104.43-5.58 156.42-3.67 47.68-8.39 95.59-17.1 142.65-2.34 12.67-23.26 45.9-24.66 68.82s27.4 61.55 54.61 31.66c26.52-29.15 26.57-45.37 22.78-80.26C802 915.36 859.57 788 849 695.48s18-48 6.79-71.78c-8.19-17.47-36.75-35.27-51.53-47.46-9.56-7.88-53-42.84-36.04-6.77z" fill="#ffe1cc"/>
            <path d="M684.67 1758.42s22.41 47.81 16.3 63-128.14 107.22-167.31 79.12 70.68-94.71 75.85-159.57 75.16 17.45 75.16 17.45z" fill="#4c4c4c"/>
            <path d="M678.48 1616.4c.17 4-5.81 115.44 6.19 142s-67.51 68-96.62 53c0 0 52.37-158.13 41.78-187.48s48.65-7.52 48.65-7.52z" fill="#ffd8bd"/>
            <path d="M531.21 1798.26s12.94-48.45-4.29-83.24S378.77 1824.2 360.59 1825s-25.89 80.43 170.62-26.74z" fill="#4c4c4c"/>
            <path d="M474 1672.79c.13 3-2.87 57.08-2.87 57.08s-42.58 55.76-56.58 54.34 64.62 31.76 104.53-36.09c0 0 6.59-10.76 7.85-33.1.7-12.47-.27-28.56-5-48.39-13.11-55.37-47.93 6.16-47.93 6.16z" fill="#ffd8bd"/>
            <path d="M719.59 215.09s31 78.17-17.09 113.46-183.48 31-183.48 31l-25.26-76.14z" fill="url(#721c195a-c3c8-4200-b102-dc4b0d06e912)"/>
            <path d="M491.38 97.47c-2 .79-79.24 30.27-16 104.9s16-104.9 16-104.9z" fill="url(#139bc8ac-8179-41b9-a6f3-4d7cdcbf6954)"/>
            <path fill="#d1edec" d="M539.87 375.85l109.04-21.3 74.54 23.06-71.57 65.2-122.89-13.75 10.88-53.21z"/>
            <path d="M569 287.84s27.16 114.88-86.07 151.68 55 179.67 55 179.67l219.3-107.43 1.91-68.45s-78.49-29.48-96.95-62.81-12-144.38-16.34-155.19S569 287.84 569 287.84z" fill="#ffe1cc"/>
            <path d="M455.72 1686.22s-.33 1.46-.8 3.9c18.49 4 36.77 9 54.94 14.6q6.5 1.27 13 2.47c6.66-6.29 8.79-9.65 8.79-9.65s40.45-245.72 37.91-335.87.77-249.19 13.89-272.38 10.21 228 13.48 251.4 45.15 317.88 18.85 362.94a82.67 82.67 0 00-6.9 15l18.35 1.55 4.65-.33c16.6-1.21 33.2-2.71 49.8-4.32 25-68.82 40.64-192.71 39.45-259.62-1.56-87.76-15.89-91.84-11-177.94s113-372.26 33.24-436.66c0 0-230.38-5.42-284 12.33s-51.52 290.63-11 454.76 7.35 377.82 7.35 377.82z" fill="#104789"/>
            <path d="M688.22 1335.34a16.44 16.44 0 01-11.68 2.5 113.79 113.79 0 0014.16-24.6c.79-1.86-1.15-3.78-2.89-3.8l-26.92-.35c-3.86 0-3.87 6 0 6l22.36.29a103.85 103.85 0 01-13.93 22 3.06 3.06 0 001.33 5 22.2 22.2 0 0020.6-1.87c3.25-2.05.25-7.24-3.03-5.17z" fill="#145493"/>
            <path d="M697.41 201.5c-4.33 37.25-44.25 88.5-50.16 91.93s-104.43 49.85-130.65 48.31c-11.79-.7-19.58-15.51-25.05-31.66-1.57-4.64-2.94-9.4-4.17-14-.39-1.44-.76-2.87-1.12-4.27-.2-.78-.4-1.56-.59-2.32-3-11.88-5-21.15-6.83-21.46-5.14-.86-19.86-4.46-12-15.76s14.73-27.1 14.17-37.59C464.34 148.09 523.17 93.5 583.77 90.86c59.35-2.59 121.36 44.25 113.64 110.64z" fill="#ffe1cc"/>
            <path d="M497.14 174.91c-11.24 3.63-6.42 11 .52 12s12.66-2.38 43.16-6.83-4.6-17.81-43.68-5.17z" opacity=".77" fill="#4c4c4c"/>
            <path d="M593 455.32s3-12.89 55-12.51-55 12.51-55 12.51z" fill="#ffd8bd"/>
            <path d="M528.37 444.25s34-6.24 53 7.21-53-7.21-53-7.21z" fill="#ffd8bd"/>
            <path d="M758.28 808C802 893.62 600 888.76 558.17 884s-126.63-10.8-116.08-51.18 20.65-96 20-111.15-8.54-273.9-9.23-283.68 46.25-21.76 46.25-21.76 42.54-33.24 31.32-26.39 33.69 181.36 33.69 181.36v-.06l43.93-77.69 31.66-56 18.62-10.64L712.12 396l13.43-7.69s7.88 7.2 19.26 17.86c4 3.73 8.38 7.89 13 12.32 21.53 20.5 34 22.15 34 22.15C741 529.82 714.52 722.31 758.28 808z" fill="#f0feff"/>
            <path d="M757.84 418.49l-61.53 56.08-29.19-31.29-103 127.88v-.06c1-1.93 19-38.5 43.93-77.69 15-23.58 32.5-48.13 50.28-66.65 3.95-4.14 7.94-8 11.91-11.43 15.62-13.61 29.76-18.78 41.88-19.33 13.69-.63 24.83 4.6 32.69 10.17 3.97 3.73 8.38 7.89 13.03 12.32z" fill="#d1edec"/>
            <path fill="#d1edec" d="M503.22 421.6l17.12 55.9 20.01 10.34 23.72 83.32-16.17-134.31-44.68-15.25z"/>
            <path fill="#f0feff" d="M623.11 430.53l100.34-52.92 36.83 22.67-59.08 64.78-36.04-41.67-101.08 147.79 59.03-140.65z"/>
            <path fill="#f0feff" d="M539.87 375.85l-37.02 37.21 16.42 52.85 24.24 16.45 20.56 88.8-8.11-134.65-23.29-16.64 7.2-44.02z"/>
            <path fill="#d1edec" d="M564.07 571.16L538.24 875.6l36.43-285.54-10.6-18.9z"/>
            <path d="M858.36 606.37c.24 2.48.45 4.91.64 7.27 2.2 26.29 2.2 44.71 2.2 44.71s-44.81 12.47-78.57 17.43c-15 1-13.19-24.07-13.19-24.07s-11.06 3.76-14.6-3.49-9.07-23.7-9.44-26.5c-3.77-28.83-10.28-58.46-10.28-58.46s-.57-163 62.73-120.82c37.94 25.29 53.17 97.85 59.26 151.92q.71 6.2 1.25 12.01z" fill="#f0feff"/>
            <path d="M867.27 620.05l.75 7.21-5.22 1.3-88.8 22-15.35 3.81c-1.74-5.15-2.55-7.61-2.55-7.61l17.1-4.1c-.31-2.76-.64-5.58-1-8.38l88.67-25q.69 6.19 1.25 12z" fill="#d1edec"/>
            <path d="M881.91 673.4s-47.41 12.27-82.51 14.34c-12.29.73-23.08.2-29.78-2.54-3.43-1.41-5.79-3.4-6.74-6.1-4.15-11.87-7.1-20.4-9-25.88-1.77-5.14-2.6-7.6-2.6-7.6l17.56-4.15 91.34-21.59 5.28-1.25 4.26-1-2.72 29.3z" fill="#f0feff"/>
            <path d="M596.24 193.52C567.93 205 477.69 116 477.69 116s-6.21-6 15-38.19S580 30.63 634.47 44.85c16.91-5.29 64.6 1.86 86.39 20.1s-96.32 117.12-124.62 128.57z" fill="url(#66789db8-7211-4c21-b63e-68a9c33bdf3e)"/>
            <path d="M586 139s32.29 66.75 19.08 134.36 24.06 82.1 24.06 82.1L727.28 268s50.38-145.89-14.89-194.4S586 139 586 139z" fill="url(#e15771cb-583e-49a4-b01b-bc6a7dda38fd)"/>
            <path d="M535.11 82c-16.48-2.82-37.49-4-52.75 4.2-16.11 8.63-14.21 27.2-11 42.44.53 2.51 4.33 1.27 3.8-1.23-3.24-15.38-4.43-32.94 13.15-39.5 14.1-5.26 31.34-4.5 45.91-2 2.53.42 3.43-3.48.89-3.91z" fill="#4c4c4c"/>
            <path fill="#4c4c4c" d="M510.059 211.68c.28 6.412-1.797 11.71-4.638 11.834-2.842.124-5.372-4.973-5.652-11.385-.28-6.411 1.797-11.71 4.638-11.833 2.841-.124 5.372 4.972 5.652 11.384z"/>
            <path d="M501.28 200c1 .06 28.37-3.33 36.1-7.16 0 0-.33 3.82-20.6 11.29s-15.5-4.13-15.5-4.13z" fill="#4c4c4c"/>
            <path d="M502.56 204.75c-.13-.29-4.95-7.67-6.92-9.36 0 0 .87-.43 5.49 4.34s1.43 5.02 1.43 5.02z" fill="#4c4c4c"/>
            <path d="M507.19 204.57c-.1-.4-4.39-10.71-6.53-13.26 0 0 1.27-.35 6 6.66s.53 6.6.53 6.6z" fill="#4c4c4c"/>
            <path d="M512.06 204.27c-.09-.34-3.83-9.33-5.71-11.54 0 0 1.13-.33 5.33 5.76s.38 5.78.38 5.78z" fill="#4c4c4c"/>
            <path fill="#f24c60" d="M532.9 291.44l-.01.01v-.01h.01z"/>
            <path d="M359.37 650.05c-25.56 33.7-117.52 10.76-184.47 2.93l-.17-.11c-1.29 7.65-2.09 15.36-2.89 23-.57 5.53-.93 11.09-1.3 16.65 16.08 2.36 32.25 4.66 47.17 9.89 5.46 1.92 10.6 4.28 15.76 6.62 22.92 7.19 48.73 10.12 73.08 11.68 27.29 1.75 54.86 1.55 82.45.47a61.92 61.92 0 0015.26-6.07c75.82-44.29 70-139.58 70-139.58s-89.33 40.82-114.89 74.52z" fill="#ffe1cc"/>
            <path d="M479.42 615v4.8c0 3.5-.06 6.77-.1 9.75-.06 3.25-.11 6.15-.18 8.65 0 1-.06 1.85-.08 2.69-.17 4.93-.41 7.78-.73 7.93s-2.26.84-5.62 2l-1.25.41c-1.69.55-3.63 1.19-5.82 1.89-9.21 3-22.63 7.23-37.56 11.69a534.82 534.82 0 01-20.31-4.5c-2.95-.73-5.93-1.48-8.92-2.28a244.36 244.36 0 01-34.91-11.79c-1.38-.62-2.73-1.25-4-1.89a42.28 42.28 0 01-.33-7.14c2.71-5 5.4-10.32 8-15.86q1.92-4.06 3.83-8.27c.52-1.15 1-2.32 1.55-3.5 1.22-2.71 2.42-5.48 3.62-8.26 0-.08.07-.18.1-.25.4-.93.78-1.84 1.19-2.78s.73-1.71 1.09-2.58c1.35-3.19 2.67-6.43 4-9.69 28.19-69.09 55-151.83 95-157.78-.08-.05 1.72 124.9 1.43 186.76z" fill="#f0feff"/>
            <path d="M470 634.85l-98-30.31 1.74-3.62 5.38-11.23 89.38 30.41 7.34 2.49a83.84 83.84 0 01-5.84 12.26z" fill="#d1edec"/>
            <path d="M471.43 651.18c-1.6 4.34-3.44 8.06-5.43 10.16-5.2 5.46-10.83 10.12-16.42 13 0 0-11.48-1.84-26.85-5.42-5.49-1.28-11.46-2.78-17.59-4.5-2.56-.72-5.16-1.48-7.74-2.28a192 192 0 01-30.26-11.8c-2.26-1.16-4.41-2.35-6.43-3.6-.32-.21-.62-1.06-.84-2.42a42.28 42.28 0 01-.33-7.14c.3-11.57 3.9-30.13 15.92-35.61l1.22-.53a32.16 32.16 0 013.5-1.22c.8-.23 1.6-.43 2.42-.59l.34.17c.39.17 1.1.46 2.05.9 2.19.94 5.74 2.46 10.25 4.27 17.72 7.15 50.22 19 72 19.37a41 41 0 0010.83-1.06c.37-.12-2.27 16.4-6.64 28.3z" fill="#f0feff"/>
            <path d="M586.92 1030.72q2.87-41.9 2.87-83.93c0-3.86-6-3.87-6 0q0 42.56-2.94 85c-5 1.49-10.29-.37-14.27-3.85-5.57-4.87-7.21-12.51-7.28-19.62-.14-15 5.53-29.29 2.17-44.27-.85-3.76-6.64-2.17-5.79 1.6 4.21 18.75-7 38 0 56.51 3.75 9.91 14.39 17.73 24.76 15.94q-1.27 17.23-3 34.44c-.4 3.84 5.6 3.81 6 0q1.88-18.36 3.18-36.75l.18-.1a3 3 0 00.12-4.97z" fill="#145493"/>
            <path d="M737.32 933l-56.09 15.11c-3.73 1-2.15 6.79 1.59 5.79l56.1-15.11c3.72-.99 2.14-6.79-1.6-5.79z" fill="#145493"/>
            <path d="M501.71 942.1a80.26 80.26 0 01-53.16-14.4c-3.17-2.22-6.17 3-3 5.18a85.42 85.42 0 0056.19 15.22c3.79-.32 3.83-6.33-.03-6z" fill="#145493"/>
            <path d="M565.72 1316.18a38 38 0 00-24.41 7.18c-3.1 2.24-.1 7.45 3 5.18a32.76 32.76 0 0116.13-6.23l-16.13 28.16c-1.93 3.36 3.26 6.38 5.18 3l18.79-32.8a3 3 0 00-2.56-4.49z" fill="#145493"/>
            <path d="M504.75 1336.88l-30.3-.5c-3.87-.07-3.87 5.93 0 6l26.33.44a46 46 0 01-13.35 20.18c-2.9 2.56 1.36 6.79 4.24 4.24a51.41 51.41 0 0016-26.52 3 3 0 00-2.92-3.84z" fill="#145493"/>
            <path d="M589.65 648.77c-10.94 0-11 17 0 17s10.95-17 0-17z" fill="#104789"/>
            <path d="M580.55 754.88c-10.94 0-11 17 0 17s10.96-17 0-17z" fill="#104789"/>
            <path d="M611.09 251.12c-.22-1 .9-2.37 2.64-3.16s3.5-.74 4.12.09a11.38 11.38 0 00-6.76 3.07z" fill="#c3d4db"/>
            <path d="M630.13 284a13.79 13.79 0 006.56-18.33 14.33 14.33 0 00-4.81-5.8l-.68-.45c-3.24-2.1-9.33-6.1-9.39-6.14l-.31-.2h-.38a11.82 11.82 0 00-4.57 1 11.62 11.62 0 00-3.78 2.77l-.26.28v.37c0 .07-1 7.29-1.54 11.11l-.1.63v.16a14.3 14.3 0 001.21 7.45 13.79 13.79 0 0018.05 7.15zm-16.93-14.3l.11-.72c.47-3.32 1.28-9.19 1.49-10.74a9.18 9.18 0 016-2.73c1.31.86 6.26 4.11 9.07 5.94l.53.34.07.05a12 12 0 014 4.83 11.14 11.14 0 11-20.28 9.21 11.9 11.9 0 01-.99-6.19z" fill="#c3d4db"/>
            <path d="M611.23 254.7a11.47 11.47 0 019.22-4.19l.76 1.66a11.49 11.49 0 00-9.23 4.19z" fill="#c3d4db"/>
            <path d="M610.12 252.13a11.53 11.53 0 019.22-4.19l.76 1.66a11.55 11.55 0 00-9.23 4.19z" fill="#c3d4db"/>
            <path d="M629.51 268.21a5.21 5.21 0 010 2 4.7 4.7 0 01-1 2 3.58 3.58 0 01-2.89 1.52 7 7 0 01-3.91-1.85l5.09-6.23a2.28 2.28 0 00-.36-.43c-.15-.15-.3-.28-.45-.41a5.72 5.72 0 00-2.59-1.25 4.81 4.81 0 00-2.7.24 5.84 5.84 0 00-2.45 1.87 6.72 6.72 0 00-1.4 3 6.58 6.58 0 00.25 3.42 7 7 0 002.3 3.14 7.67 7.67 0 003.37 1.67 5.78 5.78 0 003.3-.3 6.91 6.91 0 002.79-2.11 6.51 6.51 0 001.46-3.11 6.27 6.27 0 00-.39-3.19zm-10.69.9a3.27 3.27 0 01-.75-1.73 2 2 0 01.48-1.33 1.84 1.84 0 012.19-.62 10.33 10.33 0 013.41 2.51l-2.92 3.58a15.39 15.39 0 01-2.41-2.41z" fill="#c3d4db"/>
            <path d="M614.31 245.23l-.6-2a1.5 1.5 0 00-2.89.79l.6 2a1.5 1.5 0 002.89-.8z" fill="#c3d4db"/>
            <path d="M192 694.8c3.29.54 6.58 1.1 9.84 1.73 3.8-14.95 2.24-42.06 2.24-42.06l-9.57-1.74c2.14 7.2-.59 29.13-2.51 42.07z" fill="#773b00"/>
            <path d="M517.78 293.21a58 58 0 01-30.4 2.91c-.39-1.44-.76-2.87-1.12-4.27a54.39 54.39 0 0030.46-2.5c2.41-.91 3.44 2.96 1.06 3.86z" fill="#edaf85"/>
            <path fill="none" stroke="#c3d4db" stroke-miterlimit="10" stroke-width="3" d="M522.991 212.065c2.512 16.08-4.112 30.47-14.796 32.139-10.684 1.67-21.382-10.014-23.895-26.094-2.512-16.081 4.112-30.47 14.797-32.14 10.684-1.669 21.382 10.014 23.894 26.095z"/>
            <path d="M484 205.93a2 2 0 00-2.83 0c-.78 1-1.57 1.93-2.4 2.86a7.88 7.88 0 01-.92 1.1c0-.08-.19-.2-.39-.47-1.46-2.09-4.93-.1-3.45 2 1.2 1.71 3 3.29 5.25 2.25 1.92-.91 3.45-3.31 4.74-4.93a2.08 2.08 0 000-2.81z" fill="#c3d4db"/>
            <path d="M597.12 189.36l-76.37 11.76c-2.53.39-1.46 4.25 1.07 3.86l76.37-11.76c2.53-.39 1.45-4.22-1.07-3.86z" fill="#c3d4db"/>
            <path d="M586.14 204s1.13-25 20.76-26.4 45.59 28.88-7.4 81.56" fill="#ffd8bd"/>
            <path d="M179.56 687.77c-.08.05-4.89 5.58-9.47 4.8-2.11-.34-17.68.25-18 .16-3.84.49-6.84.83-7.92.91-6.71.48-13.42 1-20.12 1.7-13.65 1.39-26.76 2.47-40.46 1a220.06 220.06 0 01-24.1-3.65c-4.92 0-10.4-1.1-15 .9-4.44 1.95-8.55-2.39-7.85-5.8a2.87 2.87 0 010-.31 48.17 48.17 0 01-6.52-4.24l-.31-.24a42.36 42.36 0 00-16.94-1.72c-3.28.4-4.91-2-4.91-4.5-.49.07-1 .13-1.48.22-5.45 1-9.26-6.14-4-9.22 7.87-4.67 16.94-4 25.24-.77 1.73.68 5.41 2.33 5.54 2.37.9.23 7.77 2.81 8.74 3.12 4.21 1.34 9.28 3.23 13.8 2.23.85-.31 1.71-.59 2.59-.87l.54-.17c9.13-2.82 18.88-4 28.54-5.27 8.88-1.15 17.54-2.84 25.88-6.18 7.92-3.17 15.47-7.22 23.52-10.1 12.43-4.44 26.72-5.67 38.23 1.35 3.7-.72 9.73 7.64 9 9 5.12 8.6 5.9 20.36-4.54 25.28z" fill="#fee1cc"/>
        </g>
    </g>
</svg>
